<?xml version="1.0" encoding="UTF-8" standalone="no"?>
<svg
   xmlns:dc="http://purl.org/dc/elements/1.1/"
   xmlns:cc="http://creativecommons.org/ns#"
   xmlns:rdf="http://www.w3.org/1999/02/22-rdf-syntax-ns#"
   xmlns:svg="http://www.w3.org/2000/svg"
   xmlns="http://www.w3.org/2000/svg"
   id="svg8"
   version="1.1"
   viewBox="0 0 26.458334 26.458335"
   height="100"
   width="100">
  <defs
     id="defs2" />
  <metadata
     id="metadata5">
    <rdf:RDF>
      <cc:Work
         rdf:about="">
        <dc:format>image/svg+xml</dc:format>
        <dc:type
           rdf:resource="http://purl.org/dc/dcmitype/StillImage" />
        <dc:title></dc:title>
      </cc:Work>
    </rdf:RDF>
  </metadata>
  <g
     transform="matrix(1,0,0,1.0073091,-20.802214,-258.5972)"
     id="layer1">
    <path
       d="m 35.126396,259.86866 -7.225533,2.05559 v 1.9032 4.58808 c -0.489645,-0.1926 -1.116622,-0.18079 -1.533078,-0.0715 -1.103989,0.30176 -1.80462,1.21671 -1.564934,2.04268 0.239469,0.8265 1.32802,1.25145 2.431754,0.94943 0.979537,-0.26792 1.603373,-1.19073 1.630352,-1.92127 V 264.251 l 5.341248,-1.36093 -0.04389,4.35131 c -0.485,-0.26862 -1.168715,-0.22601 -1.595057,-0.0835 -0.939487,0.32547 -1.537138,1.09786 -1.468521,1.82228 0.0093,0.0978 0.02927,0.19529 0.0637,0.29014 0.290011,0.79696 1.38809,1.14298 2.454134,0.77299 0.946142,-0.32799 1.510015,-1.11447 1.509838,-1.84643 v -5.7639 z m 5.299901,14.90825 a 1.0935483,1.0935483 0 0 0 -1.093074,1.09406 1.0935483,1.0935483 0 0 0 1.093077,1.09296 1.0935483,1.0935483 0 0 0 1.093985,-1.09304 1.0935483,1.0935483 0 0 0 -1.093988,-1.09398 z m 3.5e-5,-1.24528 a 2.3384492,2.3384492 0 0 1 2.338839,2.33877 2.3384492,2.3384492 0 0 1 -2.338839,2.33886 2.3384492,2.3384492 0 0 1 -2.337972,-2.33891 2.3384492,2.3384492 0 0 1 2.337972,-2.33872 z m 0.721282,-1.96216 -0.917345,1.08693 -1.263008,-0.93462 -1.071473,0.59815 0.120367,1.418 -1.554793,0.23078 -0.335579,1.18181 1.087898,0.91737 -0.935604,1.26202 0.598209,1.07243 1.41799,-0.12127 0.230726,1.55476 1.181815,0.33561 0.91737,-1.08701 1.26207,0.93475 1.072394,-0.59821 -0.121267,-1.41716 1.554785,-0.23156 0.335483,-1.18093 -1.08699,-0.91742 0.934683,-1.26291 -0.598183,-1.07247 -1.418004,0.12127 -0.230725,-1.55476 z M 23.734089,256.7208 c -1.610471,0 -2.931875,1.32015 -2.931875,2.93103 v 13.11766 c 0,1.61085 1.321387,2.93101 2.931875,2.93101 h 9.455861 v 4.95304 c 0,1.27899 1.053253,2.33361 2.332763,2.33361 h 9.405073 c 1.279514,0 2.332761,-1.05462 2.332761,-2.33361 v -9.48425 c 0,-1.27899 -1.053247,-2.33361 -2.332761,-2.33361 h -5.033943 v -9.18385 c 0,-1.61053 -1.320544,-2.93103 -2.931015,-2.93103 z m 0,1.54255 h 13.228739 c 0.78283,0 1.388467,0.60561 1.388467,1.38848 v 10.7264 h 0.771273 5.805218 c 0.451001,0 0.790213,0.33957 0.790213,0.79106 v 9.48425 c 0,0.45148 -0.339212,0.79106 -0.790213,0.79106 h -9.405073 c -0.450994,0 -0.790213,-0.33958 -0.790213,-0.79106 v -6.49559 H 23.734089 c -0.782809,0 -1.389327,-0.60605 -1.389327,-1.38846 v -13.11766 c 0,-0.78249 0.6065,-1.38848 1.389327,-1.38848 z"
       style="display:inline;fill:#959595;fill-opacity:1;stroke:none;stroke-width:1.54254937;stroke-miterlimit:4;stroke-dasharray:none;stroke-opacity:1"
       id="path4854-5-9" />
  </g>
</svg>
