<?xml version="1.0" encoding="UTF-8" standalone="no"?>
<svg
   xmlns:dc="http://purl.org/dc/elements/1.1/"
   xmlns:cc="http://creativecommons.org/ns#"
   xmlns:rdf="http://www.w3.org/1999/02/22-rdf-syntax-ns#"
   xmlns:svg="http://www.w3.org/2000/svg"
   xmlns="http://www.w3.org/2000/svg"
   id="svg4790"
   version="1.1"
   viewBox="0 0 26.458333 24.030999"
   height="90.825821"
   width="100">
  <defs
     id="defs4784" />
  <metadata
     id="metadata4787">
    <rdf:RDF>
      <cc:Work
         rdf:about="">
        <dc:format>image/svg+xml</dc:format>
        <dc:type
           rdf:resource="http://purl.org/dc/dcmitype/StillImage" />
        <dc:title></dc:title>
      </cc:Work>
    </rdf:RDF>
  </metadata>
  <path
     id="path4748"
     d="M 0,-1.200949e-5 C 0,8.010326 0,16.020664 0,24.031002 l 24.395069,-3.2e-5 c 1.143049,0 2.063265,-0.920218 2.063265,-2.063269 V 2.0632245 c 0,-1.14305096 -0.920216,-2.063268874492 -2.063265,-2.063268874492 z M 6.5943553,4.0860371 H 18.771662 V 5.7851997 H 6.5943553 Z m 0,4.0778608 H 18.771662 V 9.8630605 H 6.5943553 Z m 0,4.0781841 H 18.771662 v 1.699163 H 6.5943553 Z"
     style="fill:#fb6717;fill-opacity:0.91372549;stroke:none;stroke-width:0.04877474;stroke-linecap:round;stroke-linejoin:miter;stroke-miterlimit:4;stroke-dasharray:none;stroke-opacity:1" />
  <g
     id="text4765"
     style="font-style:normal;font-weight:normal;font-size:9.0232439px;line-height:1.25;font-family:sans-serif;letter-spacing:0.00809124px;word-spacing:0px;fill:#ffffff;fill-opacity:1;stroke:none;stroke-width:0.22558111"
     transform="scale(0.99999895,1.0000011)"
     aria-label="メニュー">
    <path
       id="path830"
       style="font-style:normal;font-variant:normal;font-weight:bold;font-stretch:normal;font-size:4.4202652px;line-height:4;font-family:Meiryo;-inkscape-font-specification:'Meiryo Bold';letter-spacing:0.11327738px;fill:#ffffff;fill-opacity:1;stroke-width:0.22558111"
       d="m 8.3433906,17.096979 q -0.1640333,0.992833 -0.6928248,1.828107 0.5223165,0.373392 1.064058,0.846067 l -0.4769915,0.518 Q 7.9225157,19.943819 7.2642243,19.45172 6.4008912,20.451028 5.1037333,20.824419 L 4.8296251,20.289153 Q 5.3325166,20.144544 5.8375664,19.810003 6.3447746,19.475461 6.7203245,19.052428 6.3577246,18.802062 5.3670499,18.243053 l 0.3820249,-0.459724 q 0.7769997,0.403608 1.3403245,0.761891 0.4532499,-0.746783 0.5762748,-1.523783 z" />
    <path
       id="path832"
       style="font-style:normal;font-variant:normal;font-weight:bold;font-stretch:normal;font-size:4.4202652px;line-height:4;font-family:Meiryo;-inkscape-font-specification:'Meiryo Bold';letter-spacing:0.11327738px;fill:#ffffff;fill-opacity:1;stroke-width:0.22558111"
       d="M 13.176941,18.109237 H 9.7020259 v -0.591383 h 3.4749151 z m 0.248209,2.462657 H 9.4063344 V 19.956769 H 13.42515 Z" />
    <path
       id="path834"
       style="font-style:normal;font-variant:normal;font-weight:bold;font-stretch:normal;font-size:4.4202652px;line-height:4;font-family:Meiryo;-inkscape-font-specification:'Meiryo Bold';letter-spacing:0.11327738px;fill:#ffffff;fill-opacity:1;stroke-width:0.22558111"
       d="m 17.656526,20.699236 h -3.606574 v -0.481308 h 2.046099 l 0.243892,-1.8389 h -1.843216 v -0.476991 h 2.462657 l -0.29785,2.315891 h 0.994992 z" />
    <path
       id="path836"
       style="font-style:normal;font-variant:normal;font-weight:bold;font-stretch:normal;font-size:4.4202652px;line-height:4;font-family:Meiryo;-inkscape-font-specification:'Meiryo Bold';letter-spacing:0.11327738px;fill:#ffffff;fill-opacity:1;stroke-width:0.22558111"
       d="M 22.48576,19.24452 H 18.520903 V 18.670403 H 22.48576 Z" />
  </g>
  <rect
     style="fill:#ffffff;fill-opacity:0.89803922;stroke:none;stroke-width:0.04854745;stroke-linecap:round;stroke-linejoin:miter;stroke-miterlimit:4;stroke-dasharray:none;stroke-opacity:1"
     id="rect838"
     width="12.177306"
     height="1.6991626"
     x="6.5943551"
     y="4.0860343" />
  <rect
     style="display:inline;fill:#ffffff;fill-opacity:0.89803922;stroke:none;stroke-width:0.04854745;stroke-linecap:round;stroke-linejoin:miter;stroke-miterlimit:4;stroke-dasharray:none;stroke-opacity:1"
     id="rect838-1"
     width="12.177306"
     height="1.6991626"
     x="6.5943551"
     y="8.1638975" />
  <rect
     style="display:inline;fill:#ffffff;fill-opacity:0.89803922;stroke:none;stroke-width:0.04854745;stroke-linecap:round;stroke-linejoin:miter;stroke-miterlimit:4;stroke-dasharray:none;stroke-opacity:1"
     id="rect838-2"
     width="12.177306"
     height="1.6991626"
     x="6.5943561"
     y="12.242078" />
</svg>
