<?xml version="1.0" encoding="UTF-8" standalone="no"?>
<svg
   xmlns:dc="http://purl.org/dc/elements/1.1/"
   xmlns:cc="http://creativecommons.org/ns#"
   xmlns:rdf="http://www.w3.org/1999/02/22-rdf-syntax-ns#"
   xmlns:svg="http://www.w3.org/2000/svg"
   xmlns="http://www.w3.org/2000/svg"
   width="100"
   height="100"
   viewBox="0 0 26.458334 26.458334"
   version="1.1"
   id="svg8">
  <defs
     id="defs2" />
  <metadata
     id="metadata5">
    <rdf:RDF>
      <cc:Work
         rdf:about="">
        <dc:format>image/svg+xml</dc:format>
        <dc:type
           rdf:resource="http://purl.org/dc/dcmitype/StillImage" />
        <dc:title></dc:title>
      </cc:Work>
    </rdf:RDF>
  </metadata>
  <g
     id="layer1"
     transform="matrix(1,0,0,0.99606632,-4.8903002,-266.39732)">
    <path
       style="color:#000000;font-style:normal;font-variant:normal;font-weight:normal;font-stretch:normal;font-size:medium;line-height:normal;font-family:sans-serif;font-variant-ligatures:normal;font-variant-position:normal;font-variant-caps:normal;font-variant-numeric:normal;font-variant-alternates:normal;font-feature-settings:normal;text-indent:0;text-align:start;text-decoration:none;text-decoration-line:none;text-decoration-style:solid;text-decoration-color:#000000;letter-spacing:normal;word-spacing:normal;text-transform:none;writing-mode:lr-tb;direction:ltr;text-orientation:mixed;dominant-baseline:auto;baseline-shift:baseline;text-anchor:start;white-space:normal;shape-padding:0;clip-rule:nonzero;display:inline;overflow:visible;visibility:visible;opacity:1;isolation:auto;mix-blend-mode:normal;color-interpolation:sRGB;color-interpolation-filters:linearRGB;solid-color:#000000;solid-opacity:1;vector-effect:none;fill:#fb6717;fill-opacity:1;fill-rule:nonzero;stroke:none;stroke-width:1.53030157;stroke-linecap:butt;stroke-linejoin:miter;stroke-miterlimit:4;stroke-dasharray:none;stroke-dashoffset:0;stroke-opacity:1;color-rendering:auto;image-rendering:auto;shape-rendering:auto;text-rendering:auto;enable-background:accumulate"
       d="m 11.580245,267.45823 c -0.308333,0.0231 -0.603682,0.0932 -0.879582,0.20839 -0.372969,0.15566 -1.180571,0.4527 -1.8932368,0.94274 -0.3563329,0.24504 -0.7032871,0.54266 -0.9538763,0.95562 -0.2505848,0.41291 -0.3732231,0.97712 -0.2262966,1.5226 0.237153,0.88054 0.9354733,1.4906 1.7899063,2.09904 0.7560214,0.53836 1.7047294,1.01963 2.6694844,1.45773 H 4.8903002 v 0.76514 7.51571 h 2.2040802 v 11.087 H 29.144556 v -11.087 h 2.204078 v -8.28085 h -7.196345 c 0.964759,-0.4381 1.913462,-0.91937 2.669488,-1.45773 0.854428,-0.60844 1.55275,-1.2185 1.789907,-2.09904 0.146925,-0.54548 0.02427,-1.10969 -0.226302,-1.5226 -0.250587,-0.41296 -0.597542,-0.71058 -0.953875,-0.95562 -0.712667,-0.49004 -1.520268,-0.78701 -1.893236,-0.94274 -1.103597,-0.46094 -2.513998,-0.20576 -3.853935,0.93251 -1.128492,0.95863 -2.315498,2.70833 -3.564444,5.11523 -1.249018,-2.40711 -2.436742,-4.15655 -3.565292,-5.11523 -1.004953,-0.85369 -2.049349,-1.21034 -2.974355,-1.1409 z m 0.657553,1.53883 c 0.366412,0.0879 0.795936,0.31812 1.326203,0.7686 0.901436,0.76571 2.026811,2.38832 3.237376,4.72325 -0.295327,-0.0231 -0.392396,0.0284 -0.767714,-0.0563 -0.899283,-0.20296 -1.969563,-0.56232 -2.993995,-1.00427 -1.024432,-0.44195 -2.006667,-0.96938 -2.734387,-1.48758 -0.7277238,-0.51825 -1.1512895,-1.07087 -1.1998175,-1.25109 -0.03852,-0.14295 -0.025839,-0.19502 0.056359,-0.33046 0.082213,-0.1355 0.2653498,-0.31862 0.5123799,-0.48848 0.4940556,-0.33972 1.1865436,-0.61203 1.6165496,-0.79164 0.277299,-0.11584 0.580631,-0.16991 0.947047,-0.082 z m 11.763337,0 c 0.366415,-0.0879 0.669746,-0.0337 0.947046,0.082 0.430007,0.17962 1.122495,0.45192 1.616553,0.79164 0.247027,0.16987 0.430164,0.35298 0.512377,0.48849 0.08221,0.13551 0.09487,0.18748 0.05637,0.33045 -0.04854,0.18023 -0.472094,0.73285 -1.199819,1.25109 -0.727723,0.5182 -1.709959,1.04563 -2.73439,1.48758 -1.024431,0.44195 -2.095564,0.80131 -2.994847,1.00427 -0.375072,0.0846 -0.471652,0.0332 -0.766862,0.0564 1.210567,-2.33492 2.33594,-3.95753 3.237375,-4.72324 0.530267,-0.45048 0.959793,-0.68068 1.326204,-0.76861 z m -17.5805333,7.1776 H 17.35389 v 5.22024 H 6.4206017 Z m 12.4635893,0 h 10.93414 v 5.22024 H 18.884191 Z M 8.624682,282.9295 h 8.729208 v 9.5524 H 8.624682 Z m 10.259509,0 h 8.730065 v 9.5524 h -8.730065 z"
       id="path4956-4-7" />
  </g>
</svg>
