<?xml version="1.0" encoding="UTF-8" standalone="no"?>
<svg
   xmlns:dc="http://purl.org/dc/elements/1.1/"
   xmlns:cc="http://creativecommons.org/ns#"
   xmlns:rdf="http://www.w3.org/1999/02/22-rdf-syntax-ns#"
   xmlns:svg="http://www.w3.org/2000/svg"
   xmlns="http://www.w3.org/2000/svg"
   width="100"
   height="100"
   viewBox="0 0 26.458331 26.458334"
   version="1.1"
   id="svg8">
  <defs
     id="defs2" />
  <metadata
     id="metadata5">
    <rdf:RDF>
      <cc:Work
         rdf:about="">
        <dc:format>image/svg+xml</dc:format>
        <dc:type
           rdf:resource="http://purl.org/dc/dcmitype/StillImage" />
        <dc:title></dc:title>
      </cc:Work>
    </rdf:RDF>
  </metadata>
  <g
     id="layer1"
     transform="matrix(1,0,0,1.0088344,-27.126494,-254.12804)">
    <path
       id="path818-2-7"
       style="color:#000000;font-style:normal;font-variant:normal;font-weight:normal;font-stretch:normal;font-size:medium;line-height:normal;font-family:sans-serif;font-variant-ligatures:normal;font-variant-position:normal;font-variant-caps:normal;font-variant-numeric:normal;font-variant-alternates:normal;font-feature-settings:normal;text-indent:0;text-align:start;text-decoration:none;text-decoration-line:none;text-decoration-style:solid;text-decoration-color:#000000;letter-spacing:normal;word-spacing:normal;text-transform:none;writing-mode:lr-tb;direction:ltr;text-orientation:mixed;dominant-baseline:auto;baseline-shift:baseline;text-anchor:start;white-space:normal;shape-padding:0;clip-rule:nonzero;display:inline;overflow:visible;visibility:visible;opacity:1;isolation:auto;mix-blend-mode:normal;color-interpolation:sRGB;color-interpolation-filters:linearRGB;solid-color:#000000;solid-opacity:1;vector-effect:none;fill:#959595;fill-opacity:1;fill-rule:nonzero;stroke:none;stroke-width:1.52345026;stroke-linecap:butt;stroke-linejoin:miter;stroke-miterlimit:4;stroke-dasharray:none;stroke-dashoffset:0;stroke-opacity:1;color-rendering:auto;image-rendering:auto;shape-rendering:auto;text-rendering:auto;enable-background:accumulate"
       d="m 35.145009,266.54372 -8.018515,0.0604 0.0646,8.34497 0.54069,0.15991 c 0,0 2.56156,0.75828 5.387334,1.51321 1.412886,0.37752 2.891964,0.75477 4.159732,1.03722 1.267773,0.2824 2.261776,0.48189 2.977193,0.46927 1.249859,-0.0222 2.970275,-0.50884 4.731026,-1.112 1.760751,-0.60316 3.498438,-1.32809 4.592453,-1.90262 l 0.0086,-0.005 0.0077,-0.005 c 2.016957,-1.12204 3.213527,-2.2121 3.213527,-2.2121 l 0.05271,-0.0484 0.04253,-0.0569 c 0.441574,-0.58879 0.686976,-1.17598 0.680111,-1.76578 -0.0069,-0.58979 -0.314945,-1.13248 -0.74047,-1.4554 -0.851052,-0.64591 -2.031834,-0.66271 -3.150617,-0.24315 l -0.02552,0.01 -3.722759,1.71305 c 0.02933,-0.13112 0.0803,-0.25952 0.07906,-0.39192 -0.0089,-0.96509 -0.863665,-1.94784 -2.079439,-1.93409 H 39.24538 c -0.845628,-0.78732 -2.179265,-2.08925 -4.08067,-2.17549 z m -0.0442,1.52345 c 1.265185,0.0602 2.47918,1.18133 3.354649,1.97831 l 0.217636,0.19805 h 5.284467 0.0043 c 0.515517,-0.005 0.536872,0.19566 0.538987,0.42426 0.0021,0.22565 -0.02568,0.42543 -0.521986,0.43609 l -5.336324,0.0783 h -8.7e-4 l 0.02211,1.52345 h 8.7e-4 0.01785 l 5.301472,-0.0749 c 0.0064,-5e-5 0.01135,-0.005 0.01785,-0.005 l 2.223114,-0.0331 4.010108,-1.84477 c 0.725589,-0.26949 1.458804,-0.14214 1.687525,0.0313 0.114731,0.087 0.13699,0.12322 0.138569,0.25928 0.0013,0.12898 -0.08744,0.4126 -0.356208,0.78981 -0.0993,0.0893 -1.064309,0.94807 -2.837766,1.9366 -0.969028,0.50853 -2.679457,1.22896 -4.373117,1.80908 -1.695298,0.58074 -3.435013,1.01579 -4.264302,1.03037 -0.32416,0.005 -1.386914,-0.15909 -2.61928,-0.43357 -1.232367,-0.27452 -2.69683,-0.64759 -4.097673,-1.02184 -2.517984,-0.67272 -4.364362,-1.2198 -4.806689,-1.35003 l -0.0442,-5.68488 z m 0.81834,-8.81429 c 0,0 3.835829,3.56379 5.549711,2.77485 -0.598498,1.30582 -1.098051,1.68324 -1.931516,1.60507 -1.885432,-0.1768 -3.618195,-4.37992 -3.618195,-4.37992 z m 0.875988,-7.35025 c -1.548801,0 -2.884622,0.98924 -3.687058,2.29879 -0.802432,1.30952 -1.112175,3.01779 -0.466724,4.59329 1.413091,3.44936 4.278835,6.29443 7.425117,8.20639 l 0.396166,0.23976 0.395315,-0.23976 c 3.146281,-1.91196 6.012025,-4.75703 7.425118,-8.20639 0.983522,-2.40074 -0.176312,-5.07482 -2.111746,-6.28166 -0.967717,-0.60346 -2.203339,-0.82184 -3.377602,-0.346 -0.863588,0.34991 -1.618262,1.16657 -2.298778,2.22224 -1.050154,-1.64846 -2.368138,-2.48632 -3.699808,-2.48666 z m -8.71e-4,1.52344 h 8.71e-4 c 0.917113,0 2.005818,0.59416 2.972086,2.74344 l 0.695415,1.54551 0.694564,-1.54551 c 0.702915,-1.56351 1.509135,-2.30781 2.208663,-2.59126 0.69953,-0.28346 1.360967,-0.17032 1.999529,0.22786 1.27712,0.79632 2.164283,2.80681 1.507297,4.41052 -1.18998,2.90469 -3.653421,5.43436 -6.410053,7.2041 -2.75687,-1.76974 -5.220836,-4.29918 -6.410903,-7.2041 -0.431128,-1.0524 -0.229297,-2.26536 0.355359,-3.21948 0.584482,-0.95386 1.511654,-1.57068 2.38719,-1.57108 z" />
  </g>
</svg>
